<?xml version="1.0" encoding="UTF-8" standalone="no"?>
<!-- Created with Inkscape (http://www.inkscape.org/) -->

<svg
   xmlns:dc="http://purl.org/dc/elements/1.1/"
   xmlns:cc="http://creativecommons.org/ns#"
   xmlns:rdf="http://www.w3.org/1999/02/22-rdf-syntax-ns#"
   xmlns:svg="http://www.w3.org/2000/svg"
   xmlns="http://www.w3.org/2000/svg"
   xmlns:sodipodi="http://sodipodi.sourceforge.net/DTD/sodipodi-0.dtd"
   xmlns:inkscape="http://www.inkscape.org/namespaces/inkscape"
   width="210mm"
   height="297mm"
   viewBox="0 0 210 297"
   version="1.1"
   id="svg8"
   inkscape:version="0.92.1 r"
   sodipodi:docname="rectangular_not_found.svg"
   inkscape:export-filename="/home/farm/Documents/Anilist-bot/images/PNG/rectangular_not_found.png"
   inkscape:export-xdpi="96"
   inkscape:export-ydpi="96">
  <defs
     id="defs2" />
  <sodipodi:namedview
     id="base"
     pagecolor="#ffffff"
     bordercolor="#666666"
     borderopacity="1.0"
     inkscape:pageopacity="0.0"
     inkscape:pageshadow="2"
     inkscape:zoom="0.24748737"
     inkscape:cx="-4147.285"
     inkscape:cy="1269.3481"
     inkscape:document-units="mm"
     inkscape:current-layer="g4515"
     showgrid="false"
     showborder="false"
     inkscape:window-width="1920"
     inkscape:window-height="1055"
     inkscape:window-x="0"
     inkscape:window-y="0"
     inkscape:window-maximized="1" />
  <metadata
     id="metadata5">
    <rdf:RDF>
      <cc:Work
         rdf:about="">
        <dc:format>image/svg+xml</dc:format>
        <dc:type
           rdf:resource="http://purl.org/dc/dcmitype/StillImage" />
        <dc:title />
      </cc:Work>
    </rdf:RDF>
  </metadata>
  <g
     inkscape:label="Layer 1"
     inkscape:groupmode="layer"
     id="layer1">
    <g
       id="g4515">
      <g
         id="g4519"
         transform="matrix(0.90022046,0,0,0.90022046,-179.22505,-152.00209)"
         style="stroke-width:1.11083901;fill:#d40000"
         inkscape:export-filename="/home/farm/Documents/Anilist-bot/images/PNG/rectangular_error.png"
         inkscape:export-xdpi="96"
         inkscape:export-ydpi="96">
        <rect
           style="opacity:0.547;fill:#d40000;fill-opacity:0.98695655;stroke:none;stroke-width:3.33251691;stroke-miterlimit:4;stroke-dasharray:none;stroke-opacity:1"
           id="rect4508"
           width="568.74957"
           height="532.40088"
           x="-1239.0615"
           y="-234.33182" />
        <rect
           style="opacity:0.547;fill:#d40000;fill-opacity:0.98695655;stroke:none;stroke-width:3.33251691;stroke-miterlimit:4;stroke-dasharray:none;stroke-opacity:1"
           id="rect4510"
           width="519.57196"
           height="484.29239"
           x="-1214.4727"
           y="-210.27757" />
      </g>
      <text
         xml:space="preserve"
         style="font-style:normal;font-variant:normal;font-weight:300;font-stretch:normal;font-size:42.24403763px;line-height:1.25;font-family:Moon;-inkscape-font-specification:'Moon, Light';font-variant-ligatures:normal;font-variant-caps:normal;font-variant-numeric:normal;font-feature-settings:normal;text-align:start;letter-spacing:0px;word-spacing:0px;writing-mode:lr-tb;text-anchor:start;fill:#ffffff;fill-opacity:1;stroke:none;stroke-width:0.26458329"
         x="-1243.3347"
         y="68.049301"
         id="text4641"
         transform="scale(0.93177307,1.0732227)"
         inkscape:export-filename="/home/farm/Documents/Anilist-bot/images/PNG/rectangular_error.png"
         inkscape:export-xdpi="96"
         inkscape:export-ydpi="96"><tspan
           sodipodi:role="line"
           x="-1243.3347"
           y="68.049301"
           style="font-style:normal;font-variant:normal;font-weight:normal;font-stretch:normal;font-size:42.24491501px;font-family:'Modern Sans';-inkscape-font-specification:'Modern Sans, Normal';font-variant-ligatures:normal;font-variant-caps:normal;font-variant-numeric:normal;font-feature-settings:normal;text-align:start;writing-mode:lr-tb;text-anchor:start;fill:#ffffff;stroke-width:0.26458329"
           id="tspan4512">NOT FOUND</tspan></text>
      <g
         id="layer1-4"
         inkscape:label="Layer 1"
         transform="matrix(0.48325105,0,0,0.41208897,-1042.4866,-649.54962)"
         style="fill:#ffffff;stroke-width:2.24087739">
        <path
           sodipodi:nodetypes="ccccccccccccccccccccccccccsscc"
           inkscape:connector-curvature="0"
           id="path4502"
           d="m -1.8786753,786.55893 c -8.1646637,0.63839 -13.3611027,2.38986 -18.7964317,4.05175 -6.509269,3.19696 -9.555177,5.23947 -11.87415,7.03967 -11.969606,9.82578 -10.834033,9.66954 -12.297617,11.0538 -2.861351,3.42878 -4.534661,6.51464 -5.688542,9.26043 -3.538534,7.66969 -5.366117,12.34522 -6.085417,15.08125 -2.059545,9.88902 -1.662808,11.91793 -2.116666,16.66875 -0.503119,6.26052 -1.126086,14.15854 -0.264583,17.19792 0.770741,6.39602 1.459901,12.95519 2.910416,17.99166 1.176562,5.02327 2.441466,9.51649 3.96875,12.43542 -0.170535,1.36428 5.903253,13.62814 6.35,13.22917 0.556272,2.2007 10.722235,15.40482 10.054166,13.49375 4.212779,3.03112 8.462037,6.31758 12.435417,7.67291 9.222011,4.87516 15.7106259,6.47025 21.4312497,7.14375 10.4305233,1.85121 15.9540823,1.06021 21.9604163,0.52917 9.314912,-0.8971 16.962161,-1.84458 23.8125,-6.61458 5.174184,-2.79352 11.018238,-7.59689 12.832291,-9.92188 1.558246,-1.4805 4.38387,-3.79846 8.598958,-10.84792 3.263606,-4.99168 4.801255,-10.50263 6.35,-16.53645 1.727694,-4.44592 2.486717,-9.86051 3.175,-15.34584 1.259908,-4.14514 1.342246,-8.29028 1.5875,-12.43541 0.176389,-3.67955 0.923446,-5.47575 1.099835,-16.49107 l -0.82585,-21.08528 c -1.009279,-7.88625 -2.596732,-11.5588 -5.301068,-15.86949 l -6.085416,-8.20208 -9.409899,-9.29803 c 1.070973,0.29208 -11.251493,-6.23828 -15.72001,-7.44043 -10.150158,-2.73065 -19.032568,-3.24189 -19.807756,-3.36209 -7.990654,-1.23899 -22.3360282,0.40795 -22.2930933,0.60117 z"
           style="fill:#ffffff;stroke:#000000;stroke-width:0.59289879px;stroke-linecap:butt;stroke-linejoin:miter;stroke-opacity:1" />
        <path
           inkscape:connector-curvature="0"
           id="path4504"
           d="M 8.9802561,940.11728 8.7931674,962.38085"
           style="fill:#ffffff;stroke:#000000;stroke-width:0.59289879px;stroke-linecap:butt;stroke-linejoin:miter;stroke-opacity:1" />
        <path
           sodipodi:nodetypes="cccccccccccccccccccccccccc"
           inkscape:connector-curvature="0"
           id="path4506"
           d="m -70.908332,991.26666 c 1.24069,-4.21963 2.272042,-8.40437 5.556249,-12.96459 3.085028,-4.31619 5.239772,-5.84154 7.672917,-8.20208 6.173611,-3.52328 12.347222,-6.0871 18.520833,-7.14375 5.262099,-1.44382 14.054317,-1.90706 25.664583,-1.5875 l 22.2869174,1.01209 21.6339156,0.0463 h 17.991666 c 12.154923,0.6086 11.591035,0.83004 18.25625,4.49791 5.517457,3.35139 8.129086,6.70278 9.789583,10.05417 4.00911,9.80824 5.592117,17.43298 6.085417,24.07699 0.86556,14.4752 0.982098,18.7137 0.79375,18.7855 l -0.264583,20.3729 c -0.778467,6.1582 -0.877512,16.2325 -2.910417,23.6802 0.317612,-2.138 -0.906257,6.6625 -7.143749,19.3146 -3.592719,8.0053 -4.190485,8.8701 -9.392709,14.4197 -5.016152,5.7103 -10.462817,9.9856 -16.536458,12.1709 -7.190663,3.2779 -18.808158,5.5374 -29.633333,4.7625 l -29.633333,-0.5291 c -7.124045,-0.5898 -13.943311,-0.7528 -22.754167,-3.7041 -4.618291,-1.302 -8.326434,-2.9615 -16.271875,-10.1865 -4.608629,-4.8073 -7.330914,-9.3533 -9.128124,-13.0969 -4.847079,-8.2174 -7.217859,-16.8476 -10.054167,-25.4001 -1.537316,-4.4358 -1.922673,-8.2556 -2.645833,-15.3458 -0.832626,-10.6257 -0.739683,-20.9428 -0.529167,-31.2208 0.423449,-15.27345 1.533508,-19.56114 2.645834,-23.81254 z"
           style="fill:#ffffff;stroke:#000000;stroke-width:0.59289879px;stroke-linecap:butt;stroke-linejoin:miter;stroke-opacity:1" />
        <path
           inkscape:connector-curvature="0"
           id="path4508"
           d="m 4.4901281,1113.8291 -0.3741775,47.1464"
           style="fill:#ffffff;stroke:#000000;stroke-width:0.59289879px;stroke-linecap:butt;stroke-linejoin:miter;stroke-opacity:1" />
        <path
           sodipodi:nodetypes="cccccccccccccccccccccc"
           inkscape:connector-curvature="0"
           id="path4510"
           d="m -52.010651,1177.4393 c 0.609165,-4.5742 2.154849,-7.7436 3.741775,-10.8512 2.801155,-3.1623 6.307979,-4.5604 10.102789,-5.2385 7.819114,-0.3587 16.244781,-0.96 21.702284,-0.3741 H 4.1159506 25.818236 l 18.708866,0.7483 6.765347,0.8353 c 1.849663,0.5262 3.75851,0.934 5.27058,2.1354 1.002206,0.5795 5.004075,4.7638 4.427876,8.2546 l -0.748355,16.4638 c -1.064661,5.7374 -1.123999,11.4748 -4.490127,17.2122 -3.07524,5.1138 -5.430696,10.2275 -10.851142,15.3413 -5.557718,4.2782 -10.528305,9.2902 -17.960512,11.2253 -11.864254,4.1191 -10.731213,3.8071 -16.089626,4.4901 -4.3002265,0.6562 -8.8457643,1.1898 -16.0896257,0.3742 -5.5521913,-0.1758 -9.1873023,-2.1193 -14.7667083,-3.7645 l -8.05811,-4.4674 c -5.058677,-4.2685 -8.6595,-7.9539 -11.225318,-11.2253 -3.458223,-3.7193 -6.767413,-7.8858 -9.728613,-13.0962 -2.616512,-5.0209 -3.042851,-10.5894 -3.741771,-16.0897 -0.483028,-7.2874 0.300482,-8.8753 0.748352,-11.9736 z"
           style="fill:#ffffff;stroke:#000000;stroke-width:0.59289879px;stroke-linecap:butt;stroke-linejoin:miter;stroke-opacity:1" />
        <path
           sodipodi:nodetypes="cc"
           inkscape:connector-curvature="0"
           id="path4512"
           d="m 44.901281,1221.9664 c 2.623283,53.4704 5.763269,86.2727 7.483546,175.8633"
           style="fill:#ffffff;stroke:#000000;stroke-width:0.59289879px;stroke-linecap:butt;stroke-linejoin:miter;stroke-opacity:1" />
        <path
           sodipodi:nodetypes="cc"
           inkscape:connector-curvature="0"
           id="path4514"
           d="m -39.288619,1218.5988 c -3.588972,58.7105 -9.17205,108.1153 -10.102789,179.2309"
           style="fill:#ffffff;stroke:#000000;stroke-width:0.59289879px;stroke-linecap:butt;stroke-linejoin:miter;stroke-opacity:1" />
        <path
           inkscape:connector-curvature="0"
           id="path4516"
           d="m 52.384827,1397.8297 v 0 0 l -1.915557,1.0276 -1.058333,1.389 -0.595313,1.7198 v 1.7198 l 1.12448,1.7198 1.124479,0.6615 2.645833,0.066 2.447396,-0.3969 1.190625,-1.1906 v -1.8521 l -0.264584,-1.9843 -1.389062,-1.5214 -1.984375,-0.926 z"
           style="fill:#ffffff;stroke:#000000;stroke-width:0.59289879px;stroke-linecap:butt;stroke-linejoin:miter;stroke-opacity:1" />
        <path
           inkscape:connector-curvature="0"
           id="path4518"
           d="m -49.391408,1397.8297 -1.474737,0.1015 -1.124479,0.5292 -0.859896,1.3891 0.330729,1.5213 0.529167,1.1906 1.653645,0.9922 2.447396,0.066 1.719792,-1.3891 0.396875,-1.5213 -0.595313,-1.9183 -1.322916,-0.7276 z"
           style="fill:#ffffff;stroke:#000000;stroke-width:0.59289879px;stroke-linecap:butt;stroke-linejoin:miter;stroke-opacity:1" />
        <path
           sodipodi:nodetypes="cc"
           inkscape:connector-curvature="0"
           id="path4520"
           d="m 53.710416,1406.1332 c 4.349549,57.8743 8.156473,115.3868 6.614583,169.3335"
           style="fill:#ffffff;stroke:#000000;stroke-width:0.59289879px;stroke-linecap:butt;stroke-linejoin:miter;stroke-opacity:1" />
        <path
           sodipodi:nodetypes="cc"
           inkscape:connector-curvature="0"
           id="path4522"
           d="m -50.336979,1403.5536 c -5.17661,64.2566 -6.301676,117.9793 -6.537975,169.3911"
           style="fill:#ffffff;stroke:#000000;stroke-width:0.59289879px;stroke-linecap:butt;stroke-linejoin:miter;stroke-opacity:1" />
        <path
           inkscape:connector-curvature="0"
           id="path4524"
           d="m 76.46458,976.97918 v 0 l 1.364305,-1.78276 1.216078,-0.8419 1.590252,-0.37418 2.712786,0.6548 1.496711,1.59027 0.561266,2.99342 -0.561266,2.3386 -2.33861,1.87089 -2.993419,0.0935 -1.777341,-0.93543"
           style="fill:#ffffff;stroke:#000000;stroke-width:0.59289879px;stroke-linecap:butt;stroke-linejoin:miter;stroke-opacity:1" />
        <path
           inkscape:connector-curvature="0"
           id="path4526"
           d="m -65.352083,978.30207 -1.656303,-1.53077 -2.91825,-0.42521 -2.681635,0.76539 -2.366149,2.38122 -0.157743,2.29617 0.709844,2.80644 1.971791,2.21112 3.785839,-0.17008"
           style="fill:#ffffff;stroke:#000000;stroke-width:0.59289879px;stroke-linecap:butt;stroke-linejoin:miter;stroke-opacity:1" />
        <path
           inkscape:connector-curvature="0"
           id="path4536"
           d="m -168.37979,1082.7724 v 0 0 0 l 1.60139,-2.3492 -1.05833,-2.7781 -1.45521,-0.926 h -3.175 l -2.91042,0.7937 -1.85208,2.9104 v 1.9844 l 0.52917,1.9844 2.38125,1.1906 2.51354,0.2646 2.51354,-0.5292 0.91215,-2.5456"
           style="fill:#ffffff;stroke:#000000;stroke-width:0.59289879px;stroke-linecap:butt;stroke-linejoin:miter;stroke-opacity:1" />
        <path
           inkscape:connector-curvature="0"
           id="path4538"
           d="m 186.3403,1090.2559 v 0 l -1.30961,-1.9644 0.28063,-2.7128 1.96443,-1.3096 2.71279,-0.1871 2.05797,1.4032 1.02899,2.5257 -0.8419,2.8063 -1.40317,1.1226 -1.40316,0.187 -3.08697,-1.8709"
           style="fill:#ffffff;stroke:#000000;stroke-width:0.59289879px;stroke-linecap:butt;stroke-linejoin:miter;stroke-opacity:1" />
        <path
           sodipodi:nodetypes="ccccccccccccccccccccc"
           inkscape:connector-curvature="0"
           id="path4548"
           d="m -56.874954,1572.9447 -5.00984,-0.4171 -8.446098,-0.6719 -9.120192,0.956 c -6.417221,1.9806 -12.701466,3.8726 -20.565416,6.8177 -7.57445,3.1027 -11.83995,5.26 -15.99533,7.3859 -3.46121,2.3336 -6.62127,4.0649 -11.9965,10.2266 -1.21712,1.8192 -2.66596,3.4067 -3.42757,5.6815 -0.47276,3.69 -1.48872,8.2854 -0.57125,9.6584 1.85631,4.7926 3.19747,5.9792 4.57009,7.3859 2.87889,2.4358 4.29431,2.9204 5.71262,3.4088 3.04259,0.9573 6.17477,1.7354 9.71144,1.7045 7.4295,1.2989 11.82235,0.8627 15.808237,0.1938 12.536659,-0.8378 15.124586,-2.2974 20.181249,-3.6027 8.115595,-2.2301 9.702061,-3.0437 18.85164,-7.3996 10.715429,-5.8297 7.504072,-4.3296 9.71144,-5.6815 4.548334,-2.661 4.935626,-4.4935 5.515537,-6.0556 1.500092,-2.8918 1.314531,-5.6577 1.339603,-7.5661 0.523764,-4.9239 1.253895,-9.8478 -1.122532,-14.7717 -4.911928,-4.1495 -6.040145,-3.961 -7.563509,-5.2866 z"
           style="fill:#ffffff;stroke:#000000;stroke-width:0.59289879px;stroke-linecap:butt;stroke-linejoin:miter;stroke-opacity:1" />
        <path
           sodipodi:nodetypes="cccccccccccccccccc"
           inkscape:connector-curvature="0"
           id="path4550"
           d="m 60.324999,1575.4667 c -3.956945,1.4171 -7.466111,2.3066 -10.442513,6.6652 -2.534546,4.2462 -5.553874,8.3422 -5.102269,11.5929 l -0.680248,11.3966 1.20185,3.9921 c 5.408343,5.5077 7.262002,4.7557 12.670345,6.4872 l 17.976925,4.3482 c 9.270221,2.8233 15.099159,4.3562 20.43152,5.7028 9.790741,2.3963 12.027891,1.6453 16.225031,1.7109 l 9.42774,-1.3096 7.62496,-3.823 2.17696,-6.2731 c 0.66,-2.3075 0.95901,-6.4199 1.12253,-11.2097 1.2117,-1.6694 -0.27817,-7.5168 -2.32438,-11.6017 -2.00925,-3.2888 -6.44382,-4.9607 -11.41762,-6.2731 l -21.032441,-5.7029 -22.2343,-4.5623 c -0.15923,-0.6772 -7.056833,-0.9579 -15.62409,-1.1405 z"
           style="fill:#ffffff;stroke:#000000;stroke-width:0.59289879px;stroke-linecap:butt;stroke-linejoin:miter;stroke-opacity:1" />
        <path
           sodipodi:nodetypes="cc"
           inkscape:connector-curvature="0"
           id="path4507"
           d="m -74.422319,984.5953 c -31.138141,29.428 -62.276271,59.4409 -93.414411,93.0498"
           style="fill:#ffffff;stroke:#000000;stroke-width:0.59289879px;stroke-linecap:butt;stroke-linejoin:miter;stroke-opacity:1" />
        <path
           sodipodi:nodetypes="cc"
           inkscape:connector-curvature="0"
           id="path4509"
           d="m -169.29194,1085.318 c 27.58069,32.5529 59.03191,58.6549 95.077854,77.099"
           style="fill:#ffffff;stroke:#000000;stroke-width:0.59289879px;stroke-linecap:butt;stroke-linejoin:miter;stroke-opacity:1" />
        <path
           sodipodi:nodetypes="ccccccccccccccccc"
           inkscape:connector-curvature="0"
           id="path4511"
           d="m -52.880386,1180.1302 4.61151,-13.5421 -4.124073,-5.7921 c -2.595301,-4.0687 -4.738219,-3.3901 -7.826407,-4.6683 -2.459463,-1.0434 -7.725257,0.9517 -10.18472,2.2885 l -3.81001,4.0008 -9.967865,13.0391 c -4.691189,4.4022 -7.902789,10.1254 -11.254689,13.6347 -6.67275,5.0934 -7.41631,7.0836 -10.47599,9.0176 -3.07521,2.6581 -6.19488,5.1384 -8.30071,11.6741 -0.87041,2.7826 -1.95057,5.635 -1.38345,7.9384 -0.64352,5.216 1.27133,7.8736 4.61151,9.1059 3.47251,1.6127 5.85619,1.7736 7.83955,1.4008 4.611498,0.3631 9.222996,-1.4024 13.834494,-3.5022 5.61539,-2.1891 10.407201,-6.0253 14.52623,-11.2071 6.691674,-6.2017 8.668144,-11.0562 12.153654,-16.3419 8.060103,-11.7162 7.075845,-11.4232 9.750966,-17.0462"
           style="fill:#ffffff;stroke:#000000;stroke-width:0.59289879px;stroke-linecap:butt;stroke-linejoin:miter;stroke-opacity:1" />
        <path
           sodipodi:nodetypes="cc"
           inkscape:connector-curvature="0"
           id="path4513"
           d="M 84.844712,981.55743 C 124.1038,1011.1822 157.33996,1046.0771 185.31132,1085.5787"
           style="fill:#ffffff;stroke:#000000;stroke-width:0.59289879px;stroke-linecap:butt;stroke-linejoin:miter;stroke-opacity:1" />
        <path
           sodipodi:nodetypes="cc"
           inkscape:connector-curvature="0"
           id="path4515"
           d="m 186.3403,1090.2559 c -32.99255,28.1177 -65.45819,58.87 -101.144468,73.5191"
           style="fill:#ffffff;stroke:#000000;stroke-width:0.59289879px;stroke-linecap:butt;stroke-linejoin:miter;stroke-opacity:1" />
        <path
           sodipodi:nodetypes="cccccccccccccccc"
           inkscape:connector-curvature="0"
           id="path4511-5"
           d="m 63.862132,1181.4882 -2.871227,-8.5391 c 0.186641,-4.7637 -0.06788,-8.9543 2.93176,-10.2018 6.821068,-5.8149 7.163891,-2.0819 9.55561,-3.487 l 7.37838,2.1014 4.339177,2.4133 c 4.299005,5.9186 5.358435,6.4255 9.393303,10.2891 l 11.596765,14.8027 10.70848,10.5996 c 4.58607,3.8914 7.93112,7.7827 8.30071,11.6741 l 1.38345,7.9384 c -0.88007,4.0209 -1.06136,9.0901 -4.61151,9.1059 -1.74115,0.4669 -0.93355,0.9339 -7.83955,1.4008 -4.29707,-0.853 -7.60567,-0.7175 -13.8345,-3.5022 -3.989884,-2.8835 -4.777041,-2.5643 -14.526228,-11.2071 -7.673481,-9.2697 -15.581759,-17.3653 -21.90462,-33.3881"
           style="fill:#ffffff;stroke:#000000;stroke-width:0.59289879px;stroke-linecap:butt;stroke-linejoin:miter;stroke-opacity:1" />
      </g>
    </g>
  </g>
</svg>
