<?xml version="1.0" encoding="UTF-8" standalone="no"?>
<!-- Created with Inkscape (http://www.inkscape.org/) -->

<svg
   xmlns:dc="http://purl.org/dc/elements/1.1/"
   xmlns:cc="http://creativecommons.org/ns#"
   xmlns:rdf="http://www.w3.org/1999/02/22-rdf-syntax-ns#"
   xmlns:svg="http://www.w3.org/2000/svg"
   xmlns="http://www.w3.org/2000/svg"
   xmlns:sodipodi="http://sodipodi.sourceforge.net/DTD/sodipodi-0.dtd"
   xmlns:inkscape="http://www.inkscape.org/namespaces/inkscape"
   width="210mm"
   height="297mm"
   viewBox="0 0 210 297"
   version="1.1"
   id="svg8"
   inkscape:version="0.92.1 r"
   sodipodi:docname="circled_logo.svg"
   inkscape:export-filename="/home/farm/Documents/Anilist-bot/images/circled_logo.png"
   inkscape:export-xdpi="96"
   inkscape:export-ydpi="96">
  <defs
     id="defs2" />
  <sodipodi:namedview
     id="base"
     pagecolor="#ffffff"
     bordercolor="#666666"
     borderopacity="1.0"
     inkscape:pageopacity="0.0"
     inkscape:pageshadow="2"
     inkscape:zoom="0.24748737"
     inkscape:cx="-2114.4478"
     inkscape:cy="1402.0861"
     inkscape:document-units="mm"
     inkscape:current-layer="layer1-8"
     showgrid="false"
     showborder="false"
     inkscape:window-width="1920"
     inkscape:window-height="1055"
     inkscape:window-x="0"
     inkscape:window-y="0"
     inkscape:window-maximized="1" />
  <metadata
     id="metadata5">
    <rdf:RDF>
      <cc:Work
         rdf:about="">
        <dc:format>image/svg+xml</dc:format>
        <dc:type
           rdf:resource="http://purl.org/dc/dcmitype/StillImage" />
        <dc:title />
      </cc:Work>
    </rdf:RDF>
  </metadata>
  <g
     inkscape:label="Layer 1"
     inkscape:groupmode="layer"
     id="layer1">
    <g
       id="g5318"
       transform="translate(-196.76185,9.827379)"
       style="fill:#008080"
       inkscape:export-filename="/home/farm/Documents/Anilist-bot/images/PNG/circled_logo.png"
       inkscape:export-xdpi="96"
       inkscape:export-ydpi="96">
      <path
         d="M 240.61311,24.368999 A 256,256 0 0 1 -11.895218,280.34519 256,256 0 0 1 -271.29164,31.351686 256,256 0 0 1 -25.859293,-231.41671 256,256 0 0 1 240.23219,10.408822"
         sodipodi:open="true"
         sodipodi:end="6.2286263"
         sodipodi:start="0"
         sodipodi:ry="256"
         sodipodi:rx="256"
         sodipodi:cy="24.368999"
         sodipodi:cx="-15.386887"
         sodipodi:type="arc"
         id="path4485"
         style="opacity:0.547;fill:#008080;fill-opacity:0.98695655;stroke:none;stroke-width:3;stroke-miterlimit:4;stroke-dasharray:none;stroke-opacity:1" />
      <path
         style="opacity:0.547;fill:#008080;fill-opacity:0.98695655;stroke:none;stroke-width:3.00000024;stroke-miterlimit:4;stroke-dasharray:none;stroke-opacity:1"
         id="path4506"
         sodipodi:type="arc"
         sodipodi:cx="-15.386887"
         sodipodi:cy="24.368999"
         sodipodi:rx="236.34525"
         sodipodi:ry="236.34525"
         sodipodi:start="0"
         sodipodi:end="6.2286263"
         sodipodi:open="true"
         d="M 220.95836,24.368999 A 236.34525,236.34525 0 0 1 -12.163296,260.69226 236.34525,236.34525 0 0 1 -251.6442,30.815581 236.34525,236.34525 0 0 1 -25.055259,-211.77841 236.34525,236.34525 0 0 1 220.60668,11.480634" />
    </g>
    <g
       id="layer1-8"
       inkscape:label="Layer 1"
       transform="matrix(2.1466265,0,0,2.1439067,-78.479366,-374.14907)"
       style="fill:#ffffff;fill-opacity:1;stroke-width:0.46614262">
      <path
         sodipodi:nodetypes="cccccccccccccccccccccccccccccccc"
         inkscape:connector-curvature="0"
         id="path4528"
         d="m -64.826224,98.218289 0.982217,-1.309622 1.216076,-1.403165 1.403166,-0.982216 1.730569,-0.795126 1.964431,-0.280633 2.572468,-0.140315 2.478925,0.327405 1.870889,0.795129 1.590253,1.309621 1.30962,1.730568 0.561266,1.917661 0.23386,2.806324 -0.140317,2.57247 -0.65481,2.47892 -0.888671,2.38539 -0.935442,2.24507 -1.543483,2.61923 -1.683796,1.87089 -1.590255,1.12253 -1.777341,0.8419 -2.619243,0.42095 -2.19829,-0.0468 -1.449938,-0.79513 -1.169305,-1.12253 -0.748355,-1.44994 -0.982216,-2.66601 -0.420948,-2.33862 c -0.15247,-1.00704 -0.312241,-2.22137 -0.467723,-3.60145 l -0.04677,-3.60146 0.514493,-2.75955 z"
         style="fill:#ffffff;fill-opacity:1;stroke:#000000;stroke-width:0.12333357px;stroke-linecap:butt;stroke-linejoin:miter;stroke-opacity:1"
         inkscape:export-filename="/home/farm/Documents/Anilist-bot/images/PNG/circled_logo.png"
         inkscape:export-xdpi="96"
         inkscape:export-ydpi="96" />
      <path
         sodipodi:nodetypes="cc"
         inkscape:connector-curvature="0"
         id="path4530"
         d="m -54.349258,117.48842 c 1.804619,0.95477 2.171221,2.39911 1.964431,4.11595"
         style="fill:#ffffff;fill-opacity:1;stroke:#000000;stroke-width:0.12333357px;stroke-linecap:butt;stroke-linejoin:miter;stroke-opacity:1"
         inkscape:export-filename="/home/farm/Documents/Anilist-bot/images/PNG/circled_logo.png"
         inkscape:export-xdpi="96"
         inkscape:export-ydpi="96" />
      <path
         sodipodi:nodetypes="cccccccccccccccccccccccccccccccc"
         inkscape:connector-curvature="0"
         id="path4532"
         d="m -52.384827,121.60437 v 0 l 3.601456,0.32736 2.806331,0.42094 2.245065,0.5145 1.637024,0.98221 0.748355,0.8419 1.216076,2.5257 0.187089,2.71279 c 0.214959,0.70324 -0.124725,1.68379 -0.187087,2.52569 l -0.60804,3.69501 -1.449937,3.22727 -1.777341,2.99342 c -0.627051,0.87308 -1.107647,1.5123 -1.777343,2.38538 l -1.590255,1.3564 c -0.757996,0.46188 -1.081829,0.83943 -1.403165,1.02898 -0.499405,0.27288 -1.007007,0.35285 -2.572468,1.029 l -3.04019,0.3274 -2.525697,-0.32741 -2.011203,-0.84189 -2.432153,-1.82413 c -0.688077,-0.64438 -1.997885,-1.7348 -2.572471,-2.94663 -0.96087,-1.30881 -1.157699,-1.95037 -1.496708,-3.50792 -0.377246,-0.84675 -0.620529,-2.16237 -0.748355,-3.88209 -0.214134,-1.63924 -0.29934,-3.1549 -0.140317,-4.5369 -0.07633,-1.93632 0.416206,-3.11507 0.701582,-4.06918 l 1.169306,-2.05798 c 0.972036,-0.88668 0.889078,-1.17857 2.104748,-1.77734 0.822271,-0.4523 1.519593,-0.73025 2.19829,-0.98221 l 3.507914,-0.32736 2.057974,0.0936 z"
         style="fill:#ffffff;fill-opacity:1;stroke:#000000;stroke-width:0.12333357px;stroke-linecap:butt;stroke-linejoin:miter;stroke-opacity:1"
         inkscape:export-filename="/home/farm/Documents/Anilist-bot/images/PNG/circled_logo.png"
         inkscape:export-xdpi="96"
         inkscape:export-ydpi="96" />
      <path
         inkscape:connector-curvature="0"
         id="path4536"
         d="m -50.863017,153.20067 -1.66062,-0.14071 h -1.660619 l -2.21416,0.0703 -1.729812,0.49249 -2.490929,1.47747 -1.591426,1.7589 -0.691925,1.82925 -0.415154,1.68854 -0.484348,2.60317 0.27677,1.19605 1.037888,0.84427 1.729812,0.6332 3.321238,0.84428 3.39043,0.42213 3.113662,0.21107 3.252046,-0.0703 2.352543,-0.4925 1.799005,-0.98498 0.484348,-1.05533 0.345961,-1.68854 0.138386,-2.53281 -0.276771,-2.18104 -0.968693,-1.54783 -1.799005,-1.7589 -1.176272,-0.77391 z"
         style="fill:#ffffff;fill-opacity:1;stroke:#000000;stroke-width:0.12333357px;stroke-linecap:butt;stroke-linejoin:miter;stroke-opacity:1"
         inkscape:export-filename="/home/farm/Documents/Anilist-bot/images/PNG/circled_logo.png"
         inkscape:export-xdpi="96"
         inkscape:export-ydpi="96" />
      <path
         sodipodi:nodetypes="cc"
         inkscape:connector-curvature="0"
         id="path4538"
         d="m -51.309067,148.17092 c 0.685997,1.24673 1.00249,2.78907 0.44605,5.02975"
         style="fill:#ffffff;fill-opacity:1;stroke:#000000;stroke-width:0.12333357px;stroke-linecap:butt;stroke-linejoin:miter;stroke-opacity:1"
         inkscape:export-filename="/home/farm/Documents/Anilist-bot/images/PNG/circled_logo.png"
         inkscape:export-xdpi="96"
         inkscape:export-ydpi="96" />
      <path
         sodipodi:nodetypes="cc"
         inkscape:connector-curvature="0"
         id="path4540"
         d="m -47.680162,167.06078 c -0.304379,10.58229 1.438947,19.79944 3.340147,28.91134"
         style="fill:#ffffff;fill-opacity:1;stroke:#000000;stroke-width:0.12333357px;stroke-linecap:butt;stroke-linejoin:miter;stroke-opacity:1"
         inkscape:export-filename="/home/farm/Documents/Anilist-bot/images/PNG/circled_logo.png"
         inkscape:export-xdpi="96"
         inkscape:export-ydpi="96" />
      <path
         sodipodi:nodetypes="cc"
         inkscape:connector-curvature="0"
         id="path4542"
         d="m -60.75754,165.6536 c -2.78205,11.20176 -3.284604,20.40896 -4.162227,29.94434"
         style="fill:#ffffff;fill-opacity:1;stroke:#000000;stroke-width:0.12333357px;stroke-linecap:butt;stroke-linejoin:miter;stroke-opacity:1"
         inkscape:export-filename="/home/farm/Documents/Anilist-bot/images/PNG/circled_logo.png"
         inkscape:export-xdpi="96"
         inkscape:export-ydpi="96" />
      <path
         inkscape:connector-curvature="0"
         id="path4546"
         d="m -64.919767,195.59794 -0.748355,-0.11693 -0.724969,0.28063 -0.374176,0.53788 v 0.8419 l 0.35079,0.53788 0.631425,0.30402 0.958829,0.14032 0.865285,-0.35079 0.467723,-0.70159 -0.07016,-0.58465 -0.678196,-0.79513 -0.678196,-0.0935"
         style="fill:#ffffff;fill-opacity:1;stroke:#000000;stroke-width:0.12333357px;stroke-linecap:butt;stroke-linejoin:miter;stroke-opacity:1"
         inkscape:export-filename="/home/farm/Documents/Anilist-bot/images/PNG/circled_logo.png"
         inkscape:export-xdpi="96"
         inkscape:export-ydpi="96" />
      <path
         inkscape:connector-curvature="0"
         id="path4548"
         d="m -44.340015,195.97212 -0.748353,0.46772 -0.280633,0.60804 -0.04677,0.81851 0.678196,0.53788 0.912059,0.1637 0.888669,-0.25724 0.514495,-0.46773 0.140317,-0.60804 -0.163703,-0.46772 -0.771742,-0.56126 -0.444336,-0.14032 z"
         style="fill:#ffffff;fill-opacity:1;stroke:#000000;stroke-width:0.12333357px;stroke-linecap:butt;stroke-linejoin:miter;stroke-opacity:1"
         inkscape:export-filename="/home/farm/Documents/Anilist-bot/images/PNG/circled_logo.png"
         inkscape:export-xdpi="96"
         inkscape:export-ydpi="96" />
      <path
         sodipodi:nodetypes="cc"
         inkscape:connector-curvature="0"
         id="path4550"
         d="m -64.826223,198.12503 c -1.648564,13.50738 -1.204979,23.75607 -0.790443,34.05"
         style="fill:#ffffff;fill-opacity:1;stroke:#000000;stroke-width:0.12333357px;stroke-linecap:butt;stroke-linejoin:miter;stroke-opacity:1"
         inkscape:export-filename="/home/farm/Documents/Anilist-bot/images/PNG/circled_logo.png"
         inkscape:export-xdpi="96"
         inkscape:export-ydpi="96" />
      <path
         sodipodi:nodetypes="cc"
         inkscape:connector-curvature="0"
         id="path4552"
         d="m -43.825517,198.56797 c 0.801775,13.10696 3.188768,23.36052 5.725517,33.34453"
         style="fill:#ffffff;fill-opacity:1;stroke:#000000;stroke-width:0.12333357px;stroke-linecap:butt;stroke-linejoin:miter;stroke-opacity:1"
         inkscape:export-filename="/home/farm/Documents/Anilist-bot/images/PNG/circled_logo.png"
         inkscape:export-xdpi="96"
         inkscape:export-ydpi="96" />
      <path
         sodipodi:nodetypes="ccccccccccccccccccc"
         inkscape:connector-curvature="0"
         id="path4554"
         d="m -65.616666,232.17503 v 0 l -1.828797,0.46646 -1.122535,0.65482 -1.683797,1.02898 -1.309619,1.30962 -2.057977,1.96443 -0.280633,1.6838 0.742733,1.22831 2.38125,0.52917 2.513542,-0.13229 3.042708,-1.45521 2.645833,-1.05833 2.248959,-1.45521 0.595313,-2.05052 -0.727605,-1.65364 -1.124479,-1.19063 -2.116667,-0.26459 z"
         style="fill:#ffffff;fill-opacity:1;stroke:#000000;stroke-width:0.12333357px;stroke-linecap:butt;stroke-linejoin:miter;stroke-opacity:1"
         inkscape:export-filename="/home/farm/Documents/Anilist-bot/images/PNG/circled_logo.png"
         inkscape:export-xdpi="96"
         inkscape:export-ydpi="96" />
      <path
         sodipodi:nodetypes="cccccccccccccccccccc"
         inkscape:connector-curvature="0"
         id="path4556"
         d="m -38.1,231.9125 v 0 l -1.703114,0.49513 -1.683798,0.65481 -1.496708,1.26285 -1.870888,1.91766 -1.122531,1.26285 -1.169305,1.91766 v 1.21608 l 1.216075,1.02898 2.15152,0.32741 2.993419,-0.32741 2.57247,-1.12253 1.917657,-1.30962 1.403168,-1.26285 1.309619,-2.05797 -0.187087,-1.6838 -0.745033,-1.69985 -1.733894,-0.7323 z"
         style="fill:#ffffff;fill-opacity:1;stroke:#000000;stroke-width:0.12333357px;stroke-linecap:butt;stroke-linejoin:miter;stroke-opacity:1"
         inkscape:export-filename="/home/farm/Documents/Anilist-bot/images/PNG/circled_logo.png"
         inkscape:export-xdpi="96"
         inkscape:export-ydpi="96" />
      <path
         sodipodi:nodetypes="ccccccccccccc"
         inkscape:connector-curvature="0"
         id="path4558"
         d="m -65.574579,126.56217 c -7.416993,-2.96045 -14.750539,-6.06277 -20.942567,-11.10566 l 0.220078,-0.27886 0.05502,-0.488 -0.44016,-0.76686 -0.550199,-0.244 -0.742768,0.20914 -0.522689,0.62743 0.08253,0.732 0.302609,0.66229 0.46767,0.0697 0.632728,-0.0349 0.495181,-0.488"
         style="fill:#ffffff;fill-opacity:1;stroke:#000000;stroke-width:0.12333357px;stroke-linecap:butt;stroke-linejoin:miter;stroke-opacity:1"
         inkscape:export-filename="/home/farm/Documents/Anilist-bot/images/PNG/circled_logo.png"
         inkscape:export-xdpi="96"
         inkscape:export-ydpi="96" />
      <path
         sodipodi:nodetypes="cc"
         inkscape:connector-curvature="0"
         id="path4560"
         d="m -86.683108,113.93229 c 3.260718,-1.42366 41.035444,-7.58309 43.620954,-9.03226"
         style="fill:#ffffff;fill-opacity:1;stroke:#000000;stroke-width:0.12333357px;stroke-linecap:butt;stroke-linejoin:miter;stroke-opacity:1"
         inkscape:export-filename="/home/farm/Documents/Anilist-bot/images/PNG/circled_logo.png"
         inkscape:export-xdpi="96"
         inkscape:export-ydpi="96" />
      <path
         sodipodi:nodetypes="cccccccccc"
         inkscape:connector-curvature="0"
         id="path4562"
         d="m -39.753649,125.88073 c 0.196944,-0.96541 -1.361011,-1.23884 -1.592947,-1.18945 l -0.821372,0.59413 -0.429948,0.52917 -0.06615,0.66146 0.496094,0.79375 1.124479,0.16536 0.912969,-0.21817 c 0.170127,-0.40091 0.677811,-0.46427 0.376875,-1.33625 z"
         style="fill:#ffffff;fill-opacity:1;stroke:#000000;stroke-width:0.12333357px;stroke-linecap:butt;stroke-linejoin:miter;stroke-opacity:1"
         inkscape:export-filename="/home/farm/Documents/Anilist-bot/images/PNG/circled_logo.png"
         inkscape:export-xdpi="96"
         inkscape:export-ydpi="96" />
      <path
         sodipodi:nodetypes="cc"
         inkscape:connector-curvature="0"
         id="path4567"
         d="m -42.167972,127.26979 c -4.95095,8.64178 -9.687922,15.11162 -15.795709,20.52707"
         style="fill:#ffffff;fill-opacity:1;stroke:#000000;stroke-width:0.12333357px;stroke-linecap:butt;stroke-linejoin:miter;stroke-opacity:1"
         inkscape:export-filename="/home/farm/Documents/Anilist-bot/images/PNG/circled_logo.png"
         inkscape:export-xdpi="96"
         inkscape:export-ydpi="96" />
      <path
         inkscape:connector-curvature="0"
         id="path4569"
         d="m -57.963681,147.79686 v 0 l -0.413997,-0.37577 -0.508479,-0.0921 -0.477662,0.27626 -0.277354,0.30694 -0.07704,0.3837 0.107859,0.36833 0.30817,0.3223 0.30817,0.13813 0.462253,0.0768 0.354395,-0.0921 0.261944,-0.15348 0.215719,-0.21486 0.06164,-0.30696 -0.01541,-0.2916 -0.310201,-0.34556"
         style="fill:#ffffff;fill-opacity:1;stroke:#000000;stroke-width:0.12333357px;stroke-linecap:butt;stroke-linejoin:miter;stroke-opacity:1"
         inkscape:export-filename="/home/farm/Documents/Anilist-bot/images/PNG/circled_logo.png"
         inkscape:export-xdpi="96"
         inkscape:export-ydpi="96" />
      <path
         sodipodi:nodetypes="cc"
         inkscape:connector-curvature="0"
         id="path4571"
         d="m -59.610396,148.68148 c -6.042379,1.89603 -12.615388,3.84155 -24.250349,6.19369"
         style="fill:#ffffff;fill-opacity:1;stroke:#000000;stroke-width:0.12333357px;stroke-linecap:butt;stroke-linejoin:miter;stroke-opacity:1"
         inkscape:export-filename="/home/farm/Documents/Anilist-bot/images/PNG/circled_logo.png"
         inkscape:export-xdpi="96"
         inkscape:export-ydpi="96" />
      <path
         sodipodi:nodetypes="cccccccccccccccccccc"
         inkscape:connector-curvature="0"
         id="path4573"
         d="m -43.062154,104.90003 0.304591,-1.55605 0.976446,-1.79962 1.562311,-1.941671 1.757602,-1.704894 2.017987,-1.610181 1.562312,-0.947159 1.432117,-0.378865 1.757605,0.09471 0.650961,0.520939 c 0.594653,0.672785 0.4644,1.252033 0.455677,1.846963 l -1.236831,2.841488 -2.221478,3.70213 c -0.607676,0.97091 -1.283984,2.02552 -2.207973,3.15968 -0.680584,0.57593 -2.04228,1.59108 -3.239865,1.60665 -2.317761,-0.14067 -2.09347,-0.51301 -2.550812,-0.55965 l -0.564658,-0.48512 c -0.30286,-0.15349 -0.379261,-0.71885 -0.474476,-1.19385 -0.114985,-0.15458 -0.07532,-0.79073 0.01848,-1.5955 z"
         style="fill:#ffffff;fill-opacity:1;stroke:#000000;stroke-width:0.12333355px;stroke-linecap:butt;stroke-linejoin:miter;stroke-opacity:1"
         inkscape:export-filename="/home/farm/Documents/Anilist-bot/images/PNG/circled_logo.png"
         inkscape:export-xdpi="96"
         inkscape:export-ydpi="96" />
      <path
         sodipodi:nodetypes="ccccccccccccccccc"
         inkscape:connector-curvature="0"
         id="path4575"
         d="m -84.059371,153.45516 -0.760171,-2.00933 -1.307457,-2.12706 -1.525355,-2.12706 -1.176708,-1.25887 -1.612524,-0.9116 -2.135508,-0.26046 -1.394616,1.25887 v 1.64957 l 0.9588,3.21229 0.800532,1.31268 c 0.317174,0.40096 0.856028,1.27882 1.488281,2.01745 l 1.80478,2.27587 c 0.858136,0.51921 1.716273,0.69725 2.57441,0.68835 l 1.743271,-0.4775 c 0.60257,-0.60773 0.650289,-1.21546 0.740891,-1.82319 z"
         style="fill:#ffffff;fill-opacity:1;stroke:#000000;stroke-width:0.12333357px;stroke-linecap:butt;stroke-linejoin:miter;stroke-opacity:1"
         inkscape:export-filename="/home/farm/Documents/Anilist-bot/images/PNG/circled_logo.png"
         inkscape:export-xdpi="96"
         inkscape:export-ydpi="96" />
    </g>
    <text
       xml:space="preserve"
       style="font-style:normal;font-weight:normal;font-size:53.14084244px;line-height:1.25;font-family:sans-serif;letter-spacing:0px;word-spacing:0px;fill:#ffffff;fill-opacity:1;stroke:none;stroke-width:0.26458332;"
       x="-353.41174"
       y="203.20926"
       id="text5770"
       inkscape:export-filename="/home/farm/Documents/Anilist-bot/images/PNG/circled_logo.png"
       inkscape:export-xdpi="96"
       inkscape:export-ydpi="96"><tspan
         sodipodi:role="line"
         id="tspan5768"
         x="-353.41174"
         y="203.20926"
         style="font-style:normal;font-variant:normal;font-weight:normal;font-stretch:normal;font-size:53.14084244px;font-family:'Modern Sans';-inkscape-font-specification:'Modern Sans, Normal';font-variant-ligatures:normal;font-variant-caps:normal;font-variant-numeric:normal;font-feature-settings:normal;text-align:start;writing-mode:lr-tb;text-anchor:start;stroke-width:0.26458332;fill:#ffffff;">ANILISTbot</tspan></text>
  </g>
</svg>
