<?xml version="1.0" encoding="UTF-8" standalone="no"?>
<!-- Created with Inkscape (http://www.inkscape.org/) -->

<svg
   xmlns:dc="http://purl.org/dc/elements/1.1/"
   xmlns:cc="http://creativecommons.org/ns#"
   xmlns:rdf="http://www.w3.org/1999/02/22-rdf-syntax-ns#"
   xmlns:svg="http://www.w3.org/2000/svg"
   xmlns="http://www.w3.org/2000/svg"
   xmlns:sodipodi="http://sodipodi.sourceforge.net/DTD/sodipodi-0.dtd"
   xmlns:inkscape="http://www.inkscape.org/namespaces/inkscape"
   width="210mm"
   height="297mm"
   viewBox="0 0 210 297"
   version="1.1"
   id="svg8"
   inkscape:version="0.92.1 r"
   sodipodi:docname="search.svg">
  <defs
     id="defs2" />
  <sodipodi:namedview
     id="base"
     pagecolor="#ffffff"
     bordercolor="#666666"
     borderopacity="1.0"
     inkscape:pageopacity="0.0"
     inkscape:pageshadow="2"
     inkscape:zoom="0.24748737"
     inkscape:cx="-2396.6044"
     inkscape:cy="1295.4649"
     inkscape:document-units="mm"
     inkscape:current-layer="layer1"
     showgrid="false"
     showborder="false"
     inkscape:window-width="1920"
     inkscape:window-height="1055"
     inkscape:window-x="0"
     inkscape:window-y="0"
     inkscape:window-maximized="1" />
  <metadata
     id="metadata5">
    <rdf:RDF>
      <cc:Work
         rdf:about="">
        <dc:format>image/svg+xml</dc:format>
        <dc:type
           rdf:resource="http://purl.org/dc/dcmitype/StillImage" />
        <dc:title />
      </cc:Work>
    </rdf:RDF>
  </metadata>
  <g
     inkscape:label="Layer 1"
     inkscape:groupmode="layer"
     id="layer1">
    <path
       style="fill:none;stroke:#000000;stroke-width:0.26458332px;stroke-linecap:butt;stroke-linejoin:miter;stroke-opacity:1"
       d="m -84.991709,99.755088 c 1.580943,6.225982 1.269825,11.591942 -1.069078,16.036172 h -17.639793 c -2.85373,0.29221 -6.74532,0.90372 -8.55263,2.93997 -2.87846,3.01569 -3.44011,6.36399 -3.20723,9.35443 v 10.15624 c 0.3903,2.87027 -0.002,5.29337 2.00452,9.08717 5.88841,7.53427 9.06222,7.95214 10.82442,8.55262 9.217239,3.46442 15.483711,2.89822 18.708868,2.93997 7.654714,0.27174 12.212661,-0.93522 18.174328,-1.87089 2.672695,-1.81069 5.345391,-2.48322 8.018086,-5.87993 4.125765,-6.51869 4.200097,-8.49881 4.276313,-9.08717 0.431423,-0.84314 0.580177,-3.10523 0,-12.29439 -0.169766,-1.13118 0.643844,1.01825 -1.336348,-6.68174 -0.447353,-3.13077 -3.03024,-5.50734 -5.61266,-6.1472 -8.552625,-0.57694 -17.105249,-0.84348 -25.657874,-1.06908"
       id="path4487"
       inkscape:connector-curvature="0"
       sodipodi:nodetypes="cccccccccccccccc" />
    <path
       style="fill:none;stroke:#000000;stroke-width:0.26458332px;stroke-linecap:butt;stroke-linejoin:miter;stroke-opacity:1"
       d="m -65.748304,156.95077 c 0.401287,24.11233 1.009496,49.51792 -0.534538,61.47199"
       id="path4489"
       inkscape:connector-curvature="0"
       sodipodi:nodetypes="cc" />
    <path
       style="fill:none;stroke:#000000;stroke-width:0.26458332px;stroke-linecap:butt;stroke-linejoin:miter;stroke-opacity:1"
       d="m -102.6315,155.88169 c -0.88205,15.25387 -0.95998,7.99241 -3.20723,61.47199"
       id="path4491"
       inkscape:connector-curvature="0"
       sodipodi:nodetypes="cc" />
    <path
       style="fill:none;stroke:#000000;stroke-width:0.26458332px;stroke-linecap:butt;stroke-linejoin:miter;stroke-opacity:1"
       d="m -66.282842,218.42276 v 0 c -0.707779,0.23507 -1.56592,0.41327 -2.154472,0.95037 -0.200269,0.50329 -0.304414,0.16675 -0.448845,1.84264 -0.05627,0.40213 -0.181224,0.71841 0,1.41741 0.05718,0.27351 -0.219714,0.39496 0.543339,1.2048 0.243089,0.29753 0.619908,1.04007 2.398118,0.85009 0.503968,0.15172 2.058852,-0.50864 2.56282,-1.10995 0.548419,-0.62145 0.415146,-1.75965 0.448848,-2.55134 0.08617,-0.47165 -0.1501,-1.06422 -0.566965,-1.72451 -1.772973,-1.02098 -2.059058,-0.79114 -2.782843,-0.87951 z"
       id="path4493"
       inkscape:connector-curvature="0"
       sodipodi:nodetypes="ccccccccccc" />
    <path
       style="fill:none;stroke:#000000;stroke-width:0.26458332px;stroke-linecap:butt;stroke-linejoin:miter;stroke-opacity:1"
       d="m -105.83873,217.35368 c -0.79383,0.40194 -1.63573,0.37988 -2.87667,1.45249 -0.5309,0.8032 -0.97815,1.51191 -0.75595,2.31511 0.005,1.52343 0.17587,1.99355 0.42523,2.17336 0.61796,0.84593 0.56697,1.00795 0.94494,1.13393 2.63335,0.83158 2.23804,0.3984 2.17336,0.37797 1.68306,-0.18945 1.53142,-0.23667 2.12612,-0.7087 0.72092,-0.40774 0.99295,-0.99503 1.08668,-1.65365 0.38554,-1.84769 0.0741,-1.77865 0,-2.36235 l -0.75595,-1.6064 c -0.90825,-1.0791 -2.39541,-0.86508 -2.36776,-1.12176 z"
       id="path4495"
       inkscape:connector-curvature="0"
       sodipodi:nodetypes="ccccccccccc" />
    <path
       style="fill:none;stroke:#000000;stroke-width:0.26458332px;stroke-linecap:butt;stroke-linejoin:miter;stroke-opacity:1"
       d="m -66.015573,224.56995 c 1.959009,23.71494 1.281452,45.32063 0.801809,67.08465"
       id="path4497"
       inkscape:connector-curvature="0"
       sodipodi:nodetypes="cc" />
    <path
       style="fill:none;stroke:#000000;stroke-width:0.26458332px;stroke-linecap:butt;stroke-linejoin:miter;stroke-opacity:1"
       d="m -105.92782,224.80654 c -1.97348,21.32689 -3.3422,42.80496 -3.3073,64.63394"
       id="path4499"
       inkscape:connector-curvature="0"
       sodipodi:nodetypes="cc" />
    <path
       style="fill:none;stroke:#000000;stroke-width:0.26458332px;stroke-linecap:butt;stroke-linejoin:miter;stroke-opacity:1"
       d="M -65.213764,291.6546 Z"
       id="path4503"
       inkscape:connector-curvature="0" />
    <path
       style="fill:none;stroke:#000000;stroke-width:0.26458332px;stroke-linecap:butt;stroke-linejoin:miter;stroke-opacity:1"
       d="m -65.213764,291.6546 c -1.581266,0.54405 -1.958307,0.0559 -5.104356,1.94121 -1.311587,0.95555 -1.994545,1.31553 -2.799148,2.1452 -0.82631,1.13792 -1.979982,2.64032 -2.097784,4.25058 -0.148391,2.48726 -0.224184,3.89476 0.07454,8.1705 0.491321,1.24971 1.252931,2.12102 2.373922,2.4892 l 4.547287,1.7407 7.47245,3.05615 10.684212,4.26386 2.893639,0.53301 c 2.911883,0.41494 4.595068,-0.0916 6.00987,-0.79951 0.967132,-0.54632 2.06167,-1.19431 2.779193,-1.86544 0.74196,-0.26711 1.483919,-1.1237 2.225878,-1.99018 0.209853,-0.39116 0.814328,-1.76402 0.74861,-4.64764 0.232052,-1.20415 0.160796,-4.44182 -0.485081,-6.64905 -0.213488,-0.93786 -1.201961,-3.14308 -2.698346,-4.30531 -1.842181,-2.08735 -4.68943,-2.81058 -7.245634,-4.30153 -6.979469,-2.06837 -12.948651,-5.11936 -19.379255,-4.03175 z"
       id="path4505"
       inkscape:connector-curvature="0"
       sodipodi:nodetypes="ccccccccccccccccccc" />
    <path
       style="fill:none;stroke:#000000;stroke-width:0.26458332px;stroke-linecap:butt;stroke-linejoin:miter;stroke-opacity:1"
       d="m -109.23512,289.44048 c -4.72575,0.58028 -3.87229,-1.1151 -20.17031,6.93718 l -4.39814,2.32324 c -3.41789,1.88016 -2.97745,2.31346 -3.77976,3.21278 -1.12128,2.04105 -1.62648,3.77405 -1.32292,5.10268 v 4.53572 c 0.25183,1.85218 -0.36107,4.22319 1.51191,5.10268 -0.38951,-0.0212 1.21697,0.707 2.26785,0.94493 3.55265,0.91124 4.9525,1.10487 6.4256,1.32292 l 5.85863,0.0324 6.61458,-2.30028 c 2.30875,-1.19692 6.28091,-3.06202 8.24113,-4.25894 l 4.79905,-2.92262 c 2.18895,-1.95898 2.90816,-1.98312 3.401786,-3.77976 0.899752,-1.11901 0.841383,-5.21351 1.13393,-7.9375 -0.113615,-1.71717 0.01755,-3.53226 -0.935443,-4.91368 -1.332013,-2.26883 -1.310413,-1.99296 -2.620933,-2.66679 -2.18804,-1.17067 -4.67951,-0.52075 -7.02696,-0.73496 z"
       id="path4507"
       inkscape:connector-curvature="0"
       sodipodi:nodetypes="cccccccccccccccccc" />
    <path
       style="fill:none;stroke:#000000;stroke-width:0.26458332px;stroke-linecap:butt;stroke-linejoin:miter;stroke-opacity:1"
       d="m -41.31299,48.20016 c 3.491136,22.331536 7.585446,45.13617 9.847182,66.50342 -0.824552,0.62343 -1.037806,1.00159 -1.214802,1.29883 -0.06483,0.4628 -0.416067,1.60807 0.06724,2.19031 0.09807,0.74538 0.412109,0.97335 0.684348,1.14983 0.691543,0.67363 1.011095,0.39025 1.364958,0.5121 l 1.178933,-0.87052 c 0.496647,-0.29745 0.529665,-0.89795 0.668655,-1.42916 0.155177,-0.63956 -0.05239,-1.04953 -0.268959,-1.44546 -0.09901,-0.92685 -0.50015,-0.86633 -0.767525,-1.24296 -0.698298,-0.2208 -1.198431,-0.18255 -1.712849,-0.16297"
       id="path4509"
       inkscape:connector-curvature="0"
       sodipodi:nodetypes="ccccccccccc" />
    <path
       style="fill:none;stroke:#000000;stroke-width:0.26458332px;stroke-linecap:butt;stroke-linejoin:miter;stroke-opacity:1"
       d="m -30.564064,119.85465 c 11.242541,56.18384 6.933751,35.77312 9.83572,49.10376"
       id="path4511"
       inkscape:connector-curvature="0"
       sodipodi:nodetypes="cc" />
    <path
       style="fill:none;stroke:#000000;stroke-width:0.26458332px;stroke-linecap:butt;stroke-linejoin:miter;stroke-opacity:1"
       d="m -20.728344,168.95841 v 0 c -1.841062,1.6195 -3.9097,3.15884 -3.945523,7.11023 l 0.634559,5.97822 c 0.666783,4.31342 0.561155,3.59381 1.227938,6.2887 1.084627,4.24411 2.642329,8.12975 4.456064,11.99714 1.424371,2.67804 2.485698,3.78444 5.049127,4.27481 2.364507,0.20135 4.339662,-0.51935 5.821695,-2.40787 2.503547,-2.33305 1.94952,-5.28972 1.765509,-8.17092 -0.490442,-4.30823 -1.810344,-8.14309 -3.338631,-12.26822 -1.991648,-4.14036 -3.350131,-6.84455 -5.338661,-9.89537 -1.487265,-2.92464 -3.82601,-3.17812 -6.332077,-2.90672 z"
       id="path4513"
       inkscape:connector-curvature="0"
       sodipodi:nodetypes="cccccccccccc" />
    <path
       style="fill:none;stroke:#000000;stroke-width:0.26458332px;stroke-linecap:butt;stroke-linejoin:miter;stroke-opacity:1"
       d="m -113.17812,88.204717 c 2.27759,3.355984 3.62479,3.479787 4.86555,4.916795 0.0584,0.09083 5.24846,4.208682 6.96048,4.656748 5.732052,2.34061 6.839948,1.839326 8.276113,2.032816 l 8.084268,-0.05599 9.456339,0.116186 c 3.445483,-0.01418 7.820518,0.581476 10.564005,-0.332588 0.701682,-0.02957 5.204567,-1.623596 6.41559,-2.683531 1.854436,-1.001962 3.238199,-2.21986 4.912195,-3.659602 0.506505,-0.553914 0.306859,0.187202 3.552246,-4.0271 1.40478,-1.742239 2.342086,-3.535129 3.580474,-7.801376 0.923692,-1.414126 2.012593,-17.433704 2.696857,-20.455741 l 0.89398,-12.858427 c -0.429362,-7.354381 -4.244889,-10.18274 -10.263021,-13.700491 -2.258718,-0.796006 -5.22614,-1.787266 -13.6861,-2.381107 -7.689266,-0.812989 -7.499754,-0.849579 -11.975367,-1.305396 -7.393786,-0.572759 -11.026714,-0.862273 -18.702715,-0.60098 -6.448704,0.509035 -12.694374,3.709412 -13.540114,7.655946 v 0 c -1.15476,3.523651 -3.50989,8.0099 -4.031,10.58308 -2.80985,8.061845 -3.54904,15.101712 -2.83811,24.801732 0.055,2.948096 0.41089,5.925015 1.46204,8.518157 0.49053,1.733847 1.04456,4.134543 3.31629,6.580867 z"
       id="path4515"
       inkscape:connector-curvature="0"
       sodipodi:nodetypes="ccccccccccccccccccccccc" />
    <path
       style="fill:none;stroke:#000000;stroke-width:0.26458332px;stroke-linecap:butt;stroke-linejoin:miter;stroke-opacity:1"
       d="m -41.31299,48.20016 c 0.625094,-0.224342 0.857714,-0.555226 1.089959,-0.95828 0.278555,-0.61011 0.245233,-1.138679 0.194466,-1.662688 -0.100658,-0.34642 -0.113489,-0.664139 -0.465122,-1.092581 -0.08614,-0.252135 -0.309266,-0.504268 -0.797353,-0.756403 -0.468442,0.0011 -0.984888,-0.08158 -1.262474,0.252134 -0.727306,0.506979 -0.858591,0.840812 -0.99669,1.176627 -0.204865,0.728388 -0.226252,1.127592 0.03428,1.855981 l 0.595901,1.037957 c 0.460434,0.168602 1.016072,0.49053 1.607029,0.147253 z"
       id="path4517"
       inkscape:connector-curvature="0"
       sodipodi:nodetypes="cccccccccc" />
    <path
       style="fill:none;stroke:#000000;stroke-width:0.26458332px;stroke-linecap:butt;stroke-linejoin:miter;stroke-opacity:1"
       d="m -92.407216,-20.640173 c -1.167586,8.703369 -0.887646,8.033093 -1.064999,10.197066 l 0.114923,7.5389008 1.376554,7.8347154 c 0.666534,1.8025107 1.212699,4.0606197 2.129998,5.1108338 0.883986,2.566714 2.532341,3.321209 3.897311,4.925957 l 3.371204,2.234966 5.393924,1.396854 c -0.931415,-0.15641 3.892972,0.698905 5.996727,0.377976 5.556107,-0.149879 5.258483,-0.536094 7.472795,-1.113372 2.164563,-0.815191 3.43468,-1.809272 4.732466,-2.797819 2.535189,-1.834461 2.38587,-2.066587 4.466514,-3.572122 l 3.5913,-3.832909 c 2.215853,-2.562432 3.145634,-3.2636643 4.686338,-7.94391474 l 1.953792,-6.72950006 1.402119,-7.0952082 c 0.467247,-3.772999 0.822962,-8.820683 -0.255407,-11.606256 0.02166,-1.392949 -1.000726,-3.169415 -2.237276,-6.072219 l -3.979022,-4.005684 -4.719685,-2.522561 -5.06708,-1.211977 -7.605634,-0.369752 -6.594272,0.283482 c -1.86617,0.151575 -3.746296,0.317107 -6.351649,1.207866 -1.552454,0.591489 -3.048671,1.464167 -4.512181,2.50038 -3.443483,2.64594 -1.232243,0.935954 -3.790621,3.041929 -1.68048,1.607085 -2.568761,4.806132 -2.850242,5.574995 -0.801245,1.995173 -1.258936,5.530404 -1.557897,6.647373 z"
       id="path4538"
       inkscape:connector-curvature="0"
       sodipodi:nodetypes="cccccccccccccccccccccccccccc" />
    <path
       style="fill:none;stroke:#000000;stroke-width:0.26458332px;stroke-linecap:butt;stroke-linejoin:miter;stroke-opacity:1"
       d="m -71.191574,18.977096 c 1.37595,5.355708 0.159243,10.142568 -1.656211,12.066795"
       id="path4540"
       inkscape:connector-curvature="0"
       sodipodi:nodetypes="cc" />
    <path
       style="fill:none;stroke:#000000;stroke-width:0.26458332px;stroke-linecap:butt;stroke-linejoin:miter;stroke-opacity:1"
       d="m -111.08618,37.714447 c -6.84011,-12.990285 -13.41801,-26.402316 -18.24114,-42.6369897 l 0.28819,-0.2559692 c 0.0616,-0.1262625 0.25215,-0.5002542 0.006,-0.8307646 -0.0648,-0.1320633 -0.16732,-0.2526175 -0.4096,-0.3303231 -0.18295,-0.112625 -0.36588,-0.01245 -0.54883,0.027514 -0.156,0.1523958 -0.29552,0.2575567 -0.39885,0.6421837 -0.0121,0.1935971 0.0874,0.4697166 0.0765,0.4092032 0.0894,0.3255564 0.26198,0.3307958 0.40101,0.3956266 0.1849,-2.07e-4 0.33152,0.091939 0.58599,-0.057472"
       id="path4544"
       inkscape:connector-curvature="0"
       sodipodi:nodetypes="cccccccccc" />
    <path
       style="fill:none;stroke:#000000;stroke-width:0.26458332px;stroke-linecap:butt;stroke-linejoin:miter;stroke-opacity:1"
       d="m -129.99176,-6.313935 c -7.38884,-16.602781 -12.36791,-33.977482 -16.63135,-50.057825"
       id="path4546"
       inkscape:connector-curvature="0"
       sodipodi:nodetypes="cc" />
    <path
       style="fill:none;stroke:#000000;stroke-width:0.26458332px;stroke-linecap:butt;stroke-linejoin:miter;stroke-opacity:1"
       d="m -146.62311,-56.37176 v 0 l 4.44623,-1.976385 c 2.58098,-1.345791 2.98581,-2.691585 3.66364,-4.037378 2.07183,-9.136739 0.84012,-2.531875 1.57581,-8.436253 0.35609,-0.07254 0.38649,-3.271559 0,-10.472585 -0.50183,-2.923251 -0.92432,-5.828939 -2.62631,-9.018055 0.27911,-0.176444 -1.56729,-3.392033 -3.93951,-5.527183 -1.32809,-1.23232 -3.58822,-1.43219 -6.14658,-1.30177 -1.65009,0.1263 -4.26319,1.51337 -5.67187,2.17447 -1.35313,0.90325 -2.55457,2.05859 -3.4142,3.78177 -1.05304,3.175018 -2.33053,6.33931 -2.39556,9.787917 -0.70492,4.094154 -0.19649,7.079721 -0.1698,9.823217 -0.0282,3.836436 0.009,7.16539 0.95769,9.103267 0.64096,2.114555 0.75093,3.153628 2.39555,4.44878 1.95625,1.844815 3.69415,2.238554 5.40648,2.462361 3.21226,0.444249 4.34237,-0.181826 5.91843,-0.812173 z"
       id="path4554"
       inkscape:connector-curvature="0"
       sodipodi:nodetypes="ccccccccccccccccc" />
  </g>
</svg>
